<svg width="19" height="24" viewBox="0 0 19 24" fill="none" xmlns="http://www.w3.org/2000/svg">
<path d="M15.7291 12.742C15.6981 10.7914 16.5286 9.272 18.2205 8.18388C17.2695 6.77729 15.8629 5.98553 14.0007 5.8086C13.1298 5.7781 12.2631 5.94126 11.4629 6.28631C10.858 6.54389 10.2334 6.75245 9.59518 6.90999C9.00846 6.82711 8.43921 6.64894 7.90993 6.38252C7.24343 6.0698 6.52215 5.8906 5.78679 5.85505C4.80797 5.86556 3.85216 6.15312 3.03002 6.6844C2.17586 7.22848 1.47657 7.98378 0.999756 8.87723C0.330008 10.1484 0.000851174 11.5713 0.0443402 13.0074C0.0503291 14.4738 0.291126 15.9298 0.757585 17.3201C1.15859 18.6033 1.73342 19.8255 2.46605 20.9527C2.92557 21.698 3.4663 22.39 4.07832 23.0161C4.7418 23.6796 5.40529 24.0114 6.1119 23.9749C6.72149 23.9143 7.315 23.7434 7.86349 23.4706C8.49925 23.1771 9.1902 23.0221 9.89043 23.0161C10.5698 23.0271 11.2392 23.182 11.8543 23.4706C12.4324 23.7483 13.0587 23.9117 13.6988 23.9516C14.4559 23.8996 15.1661 23.5658 15.6893 23.0161C15.9473 22.7747 16.1817 22.5092 16.3893 22.2233C16.6447 21.8915 16.9234 21.4868 17.2319 21.0257C17.4475 20.6939 17.6598 20.329 17.8688 19.9442C18.0812 19.5478 18.2695 19.139 18.4328 18.7201C18.5091 18.5442 18.5787 18.3651 18.6385 18.1826C18.6982 18.0002 18.7645 17.8111 18.8242 17.6187C18.2468 17.3563 17.7227 16.9897 17.2783 16.5372C16.78 16.0399 16.3863 15.4479 16.1202 14.7962C15.8542 14.1444 15.7212 13.446 15.7291 12.742V12.742Z" fill="#E5E1E1"/>
<path d="M12.8221 3.86104C13.6033 2.91579 14.0345 1.73002 14.0429 0.503794V0.261621C14.0434 0.181416 14.0356 0.101372 14.0197 0.0227661C13.3836 0.0752619 12.766 0.263015 12.2084 0.57346C11.6015 0.885901 11.0644 1.31813 10.6293 1.84404C9.84254 2.7422 9.4015 3.89127 9.38526 5.08517V5.33066C9.3851 5.40756 9.39289 5.48426 9.40848 5.55956C10.6824 5.6624 11.8236 5.11171 12.8221 3.86104Z" fill="#E5E1E1"/>
</svg>
