<svg width="17" height="20" viewBox="0 0 17 20" fill="none" xmlns="http://www.w3.org/2000/svg">
<path d="M16.0472 14.1194C16.0472 17.2799 13.525 19.8334 10.3332 19.8334C7.17266 19.8334 4.65045 17.3423 4.65045 14.1194C4.65045 12.6027 5.22401 11.2612 6.13594 10.2556L2.27223 14.1194L0.244385 12.0915L4.60246 7.78141C5.19281 7.19105 5.49759 6.42551 5.49759 5.57837V0.166748H8.35577V5.57837C8.35577 7.23905 7.76542 8.64295 6.6159 9.79247L6.48871 9.91966C7.49424 8.99333 8.86694 8.43417 10.3356 8.43417C13.573 8.43657 16.0472 11.0068 16.0472 14.1194ZM13.4626 14.1194C13.4626 12.4275 12.0587 11.0548 10.3332 11.0548C8.59336 11.0548 7.23746 12.4923 7.23746 14.1194C7.23746 15.7944 8.61016 17.2151 10.3332 17.2151C12.1211 17.2151 13.4626 15.7633 13.4626 14.1194Z" fill="#E5E1E1"/>
</svg>
