<svg width="43" height="24" viewBox="0 0 43 24" fill="none" xmlns="http://www.w3.org/2000/svg">
<g clip-path="url(#clip0_2614_7810)">
<path d="M0.621967 10.9362C0.534058 10.9362 0.464336 11.0036 0.453558 11.1009L0.145203 13.4394L0.453053 15.7376C0.464336 15.8344 0.534058 15.9019 0.621461 15.9019C0.706508 15.9019 0.775892 15.8346 0.78987 15.7384L1.15565 13.4394L0.78987 11.1006C0.776734 11.0041 0.707181 10.9362 0.621967 10.9362ZM2.3532 9.65849C2.33872 9.55745 2.26681 9.48874 2.17806 9.48874C2.08931 9.48874 2.01454 9.56031 2.00275 9.65849L1.58897 13.4394L2.00275 17.1365C2.01454 17.2357 2.08847 17.3073 2.17806 17.3073C2.26765 17.3073 2.33838 17.2376 2.35287 17.1375L2.8229 13.4394L2.3532 9.65849ZM8.87465 6.17108C8.70489 6.17108 8.56444 6.31001 8.55636 6.48651L8.22678 13.4418L8.55636 17.9372C8.56495 18.1128 8.70489 18.2514 8.87465 18.2514C9.04441 18.2514 9.18334 18.1125 9.19328 17.9363V17.9377L9.56597 13.4411L9.19328 6.48583C9.18334 6.31001 9.0434 6.17108 8.87465 6.17108ZM5.49941 8.58859C5.36906 8.58859 5.26263 8.69284 5.25219 8.83177L4.88085 13.4405L5.25219 17.8994C5.26212 18.0375 5.36889 18.1418 5.49941 18.1418C5.62993 18.1418 5.73518 18.0375 5.74613 17.8994L6.16799 13.4405L5.74613 8.83076C5.73484 8.69284 5.62841 8.58859 5.49941 8.58859ZM12.3043 18.2517C12.5148 18.2517 12.6859 18.0818 12.6945 17.8644L13.0178 13.4447L12.6953 4.18385C12.6867 3.9666 12.5155 3.79651 12.3051 3.79651C12.0948 3.79651 11.9212 3.96677 11.9143 4.18385L11.628 13.4438L11.9143 17.8654C11.916 17.968 11.9578 18.0657 12.0307 18.1379C12.1036 18.2101 12.2017 18.2509 12.3043 18.2517ZM19.3269 18.2725C19.6166 18.2725 19.8557 18.0338 19.8611 17.7405L20.0866 13.4475L19.8611 2.75186C19.8561 2.45883 19.6166 2.21986 19.3267 2.21986C19.0369 2.21986 18.7971 2.45849 18.7926 2.75237L18.5905 13.444C18.5905 13.4507 18.7926 17.7431 18.7926 17.7431C18.7951 17.8836 18.8523 18.0176 18.9521 18.1164C19.0519 18.2153 19.1864 18.2713 19.3269 18.2725ZM15.789 18.2556C16.0416 18.2556 16.2445 18.0535 16.2513 17.7952V17.7982L16.5256 13.4455L16.2508 4.11783C16.2439 3.85966 16.0406 3.6579 15.7885 3.6579C15.6663 3.65803 15.5491 3.70644 15.4624 3.79259C15.3757 3.87873 15.3266 3.99563 15.3257 4.11783L15.0817 13.4462L15.3262 17.798C15.3276 17.9199 15.3769 18.0362 15.4635 18.1219C15.5501 18.2076 15.6672 18.2555 15.789 18.2556ZM7.18063 18.2149C7.33051 18.2149 7.45177 18.0948 7.46305 17.9368L7.86066 13.4403L7.46305 9.1627C7.45227 9.00473 7.33102 8.8855 7.18063 8.8855C7.03024 8.8855 6.90713 9.00557 6.8977 9.16455L6.54741 13.4405L6.89838 17.937C6.90747 18.095 7.02839 18.2149 7.18063 18.2149ZM3.83217 17.9685C3.94163 17.9685 4.03038 17.8821 4.04301 17.7625L4.49014 13.4405L4.04335 8.95404C4.03022 8.83413 3.94146 8.74757 3.83183 8.74757C3.7222 8.74757 3.63227 8.83447 3.62098 8.95404L3.22792 13.4405L3.62098 17.7625C3.63176 17.8824 3.72068 17.9685 3.83217 17.9685ZM17.5512 3.96239C17.4193 3.96248 17.2928 4.01475 17.1993 4.1078C17.1058 4.20086 17.0529 4.32712 17.0522 4.45903L16.8294 13.4467L17.0521 17.7713C17.0534 17.9026 17.1066 18.0282 17.2001 18.1205C17.2935 18.2129 17.4197 18.2646 17.551 18.2644C17.8244 18.2644 18.0428 18.047 18.049 17.7681V17.7718L18.2996 13.4472L18.0497 4.45819C18.0433 4.18031 17.8245 3.96239 17.5512 3.96239ZM10.5835 18.2603C10.7726 18.2603 10.9289 18.1059 10.938 17.909L11.2854 13.4438L10.9378 4.89689C10.9282 4.69952 10.7724 4.54559 10.5833 4.54559C10.3942 4.54559 10.2364 4.70002 10.2283 4.89689L9.92047 13.4438L10.2288 17.9112C10.2312 18.004 10.2695 18.0923 10.3356 18.1574C10.4017 18.2226 10.4907 18.2593 10.5835 18.2603ZM14.4661 17.8371L14.7647 13.4453L14.466 3.87246C14.4587 3.63466 14.2713 3.44824 14.0399 3.44824C13.8085 3.44824 13.6197 3.63433 13.6135 3.87246L13.3484 13.4448L13.6142 17.8388C13.6161 17.9507 13.6617 18.0575 13.7414 18.1362C13.821 18.2149 13.9283 18.2593 14.0402 18.2598C14.2721 18.2598 14.4584 18.0746 14.4661 17.8371ZM37.0665 7.92742C36.3788 7.92683 35.6979 8.0635 35.0637 8.32941C34.6511 3.66228 30.7376 0.00140381 25.9639 0.00140381C24.8312 0.00334975 23.7086 0.213125 22.6516 0.620308C22.2609 0.771876 22.1567 0.927318 22.1531 1.22928V17.664C22.1558 17.8166 22.214 17.963 22.317 18.0758C22.4199 18.1885 22.5605 18.2597 22.7123 18.2762C22.7254 18.2775 36.9732 18.2848 37.0657 18.2848C39.9253 18.2848 42.2438 15.9661 42.2438 13.1062C42.2438 10.2462 39.9261 7.92742 37.0665 7.92742ZM21.0952 1.21479C20.7843 1.21479 20.5288 1.4701 20.5243 1.78385L20.29 13.4489L20.5241 17.6825C20.5268 17.8324 20.5879 17.9753 20.6945 18.0807C20.8011 18.1861 20.9446 18.2457 21.0945 18.2467C21.4047 18.2467 21.66 17.9917 21.6646 17.678V17.683L21.9186 13.4489L21.6646 1.783C21.66 1.4701 21.4054 1.21479 21.0952 1.21479Z" fill="#E5E1E1"/>
</g>
<defs>
<clipPath id="clip0_2614_7810">
<rect width="42.0986" height="23.9983" fill="white" transform="translate(0.149109 0.000915527)"/>
</clipPath>
</defs>
</svg>
