<svg width="25" height="24" viewBox="0 0 25 24" fill="none" xmlns="http://www.w3.org/2000/svg">
<path d="M12.0457 1.30124e-07C9.67225 -0.000349319 7.352 0.703144 5.37838 2.02151C3.40477 3.33988 1.86642 5.21391 0.957902 7.4066C0.049381 9.59929 -0.188511 12.0122 0.274312 14.34C0.737134 16.6679 1.87988 18.8063 3.55804 20.4847C5.2362 22.1631 7.37438 23.3062 9.7022 23.7694C12.03 24.2325 14.4429 23.995 16.6357 23.0868C18.8285 22.1786 20.7028 20.6405 22.0214 18.6671C23.3401 16.6937 24.0439 14.3735 24.0439 12C24.0439 8.81774 22.7799 5.76575 20.5298 3.51535C18.2798 1.26496 15.228 0.000468667 12.0457 1.30124e-07V1.30124e-07ZM17.5475 17.3145C17.4964 17.3985 17.4292 17.4716 17.3499 17.5295C17.2705 17.5875 17.1805 17.6292 17.085 17.6524C16.9895 17.6755 16.8903 17.6796 16.7933 17.6644C16.6962 17.6491 16.603 17.6149 16.5192 17.5637C13.7029 15.841 10.1588 15.4435 5.97857 16.4064C5.78528 16.4505 5.58241 16.4159 5.41459 16.3104C5.24677 16.2049 5.12774 16.037 5.08369 15.8437C5.03965 15.6504 5.07419 15.4475 5.17972 15.2797C5.28525 15.1119 5.45313 14.9929 5.64642 14.9488C10.2171 13.9029 14.1376 14.3534 17.3072 16.2863C17.4753 16.3909 17.595 16.5579 17.64 16.7507C17.6851 16.9435 17.6518 17.1463 17.5475 17.3145V17.3145ZM19.0157 14.0478C18.9514 14.1524 18.8672 14.2434 18.7678 14.3156C18.6684 14.3877 18.5557 14.4395 18.4363 14.468C18.3168 14.4966 18.1929 14.5013 18.0716 14.482C17.9503 14.4626 17.8341 14.4195 17.7294 14.3552C14.5051 12.3675 9.58634 11.7916 5.77186 12.9506C5.537 13.0135 5.28686 12.9827 5.07435 12.8645C4.86184 12.7464 4.70363 12.5502 4.63317 12.3175C4.56271 12.0847 4.58554 11.8337 4.69682 11.6175C4.8081 11.4014 4.99912 11.2369 5.22945 11.159C9.58634 9.83749 15.0051 10.4771 18.7082 12.7492C18.8138 12.8132 18.9056 12.8976 18.9783 12.9974C19.0511 13.0973 19.1032 13.2105 19.1318 13.3307C19.1604 13.4508 19.1649 13.5755 19.1449 13.6973C19.125 13.8192 19.081 13.9359 19.0157 14.0407V14.0478ZM19.1429 10.6449C15.2754 8.34808 8.89553 8.13607 5.20295 9.25798C5.06142 9.30079 4.91285 9.3153 4.76571 9.30069C4.61857 9.28607 4.47575 9.24262 4.3454 9.17282C4.08216 9.03183 3.8857 8.79205 3.79924 8.50621C3.75644 8.36468 3.74193 8.2161 3.75654 8.06896C3.77115 7.92183 3.8146 7.779 3.88441 7.64866C4.02539 7.38541 4.26518 7.18895 4.55101 7.1025C8.79129 5.81627 15.8354 6.06362 20.2895 8.70674C20.422 8.77907 20.5387 8.87737 20.6324 8.99577C20.7261 9.11417 20.795 9.25025 20.8349 9.39587C20.8749 9.54149 20.885 9.69367 20.8649 9.84331C20.8447 9.99295 20.7945 10.137 20.7175 10.2668C20.6404 10.3967 20.5379 10.5096 20.4162 10.599C20.2944 10.6883 20.1559 10.7522 20.009 10.7869C19.862 10.8215 19.7096 10.8261 19.5607 10.8005C19.4119 10.7749 19.2698 10.7196 19.1429 10.6378V10.6449Z" fill="#E5E1E1"/>
</svg>
