<svg width="36" height="24" viewBox="0 0 36 24" fill="none" xmlns="http://www.w3.org/2000/svg">
<path fill-rule="evenodd" clip-rule="evenodd" d="M33.2861 1.83097C33.8206 2.36297 34.2057 3.02623 34.4027 3.75415C35.1026 6.42659 35.1167 12.0057 35.1167 12.0057C35.1167 12.0057 35.1167 17.5848 34.4027 20.2572C34.204 20.9831 33.8181 21.644 33.2837 22.1739C32.7494 22.7038 32.0853 23.0841 31.3578 23.2768C28.6854 23.9936 17.9618 23.9936 17.9618 23.9936C17.9618 23.9936 7.24107 23.9936 4.56865 23.2881C3.84217 23.0928 3.17978 22.71 2.64784 22.178C2.11591 21.6461 1.73312 20.9837 1.53783 20.2572C0.821045 17.5848 0.821045 12.0057 0.821045 12.0057C0.821045 12.0057 0.821045 6.42659 1.53783 3.75415C1.73312 3.02767 2.11591 2.36527 2.64784 1.83334C3.17978 1.3014 3.84217 0.91861 4.56865 0.723319C7.23825 0.00653076 17.9618 0.00653076 17.9618 0.00653076C17.9618 0.00653076 28.6825 0.00653076 31.3578 0.723319C32.0866 0.91697 32.7516 1.29898 33.2861 1.83097ZM23.4428 12.0056L14.5338 17.1473V6.86391L23.4428 12.0056Z" fill="#E5E1E1"/>
</svg>
